<svg width="457" height="105" viewBox="0 0 457 105" fill="none" xmlns="http://www.w3.org/2000/svg">
<path d="M110.699 0.669922C101.422 0.685786 92.5283 4.37838 85.968 10.9387C79.4077 17.4991 75.7151 26.3922 75.6992 35.6699C75.7151 44.9476 79.4077 53.8408 85.968 60.4011C92.5283 66.9615 101.422 70.6541 110.699 70.6699C119.977 70.6541 128.87 66.9615 135.43 60.4011C141.991 53.8408 145.683 44.9476 145.699 35.6699C145.683 26.3922 141.991 17.4991 135.43 10.9387C128.87 4.37838 119.977 0.685786 110.699 0.669922V0.669922ZM110.699 56.1899C105.13 56.1899 99.7882 53.9774 95.85 50.0392C91.9117 46.1009 89.6992 40.7595 89.6992 35.1899C89.6992 29.6204 91.9117 24.2789 95.85 20.3407C99.7882 16.4024 105.13 14.1899 110.699 14.1899C116.264 14.2058 121.596 16.4233 125.531 20.3582C129.466 24.293 131.683 29.6252 131.699 35.1899C131.699 40.7595 129.487 46.1009 125.548 50.0392C121.61 53.9774 116.269 56.1899 110.699 56.1899Z" fill="white"/>
<path d="M317.079 52.8101L306.169 47.2101L305.979 47.5401C302.379 54.2701 295.479 58.1201 287.059 58.1201C276.479 58.1201 268.269 51.5901 265.939 41.6301H318.289V33.8601C318.289 14.2801 304.839 0.600098 285.579 0.600098C266.319 0.600098 251.789 15.6001 251.789 35.4701C251.789 55.3401 266.689 70.7401 287.199 70.7401C300.549 70.7401 311.099 64.5001 316.909 53.1601L317.079 52.8101ZM285.439 13.3601C295.159 13.3601 303.439 19.3601 304.159 29.4701H266.099C267.679 19.3601 276.359 13.3601 285.439 13.3601Z" fill="white"/>
<path d="M35.8392 2.33008H0.769219V16.3301H35.8292C47.4092 16.3301 56.8292 24.3301 56.8292 35.8701C56.8134 41.4348 54.5958 46.767 50.661 50.7018C46.7261 54.6367 41.3939 56.8543 35.8292 56.8701C30.6229 56.8602 25.6047 54.9222 21.7433 51.4301C17.8818 47.9379 15.4507 43.1392 14.9192 37.9601H0.699219V86.7401H14.6992V63.8401C20.764 68.4295 28.1637 70.9089 35.7692 70.9001C45.0461 70.8816 53.9378 67.1882 60.4975 60.6284C67.0573 54.0686 70.7507 45.177 70.7692 35.9001C70.7892 16.5601 55.1492 2.33008 35.8392 2.33008Z" fill="white"/>
<path d="M419.992 42.6498H436.262C437.888 42.6418 439.45 43.278 440.609 44.4193C441.767 45.5605 442.426 47.114 442.442 48.7398C442.436 50.364 441.789 51.9201 440.64 53.0686C439.492 54.217 437.936 54.8646 436.312 54.8698H401.652V68.8698H436.262C441.607 68.8752 446.735 66.7576 450.519 62.9828C454.303 59.208 456.434 54.0849 456.442 48.7398C456.439 43.4009 454.318 38.2813 450.543 34.5052C446.769 30.729 441.65 28.6051 436.312 28.5998H419.992C418.367 28.5946 416.811 27.947 415.663 26.7986C414.514 25.6501 413.867 24.094 413.862 22.4698C413.867 20.8457 414.514 19.2896 415.663 18.1411C416.811 16.9926 418.367 16.3451 419.992 16.3398H452.342V2.33984H419.992C414.653 2.34513 409.535 4.46734 405.76 8.24101C401.984 12.0147 399.86 17.1317 399.852 22.4698C399.849 25.1173 400.368 27.7393 401.378 30.1863C402.389 32.6332 403.872 34.8571 405.742 36.731C407.612 38.6049 409.833 40.092 412.278 41.1076C414.723 42.1232 417.344 42.6472 419.992 42.6498V42.6498Z" fill="white"/>
<path d="M227.671 50.3398C226.871 57.6798 218.171 58.3398 216.371 49.9498C215.041 43.7798 204.371 2.33984 204.371 2.33984H191.371C191.371 2.33984 180.741 43.7398 179.441 49.9498C177.641 58.3098 168.941 57.6798 168.141 50.3398C166.211 32.5998 163.701 5.07984 163.531 2.33984H149.531L154.141 51.4698C155.561 62.2698 162.771 70.7398 173.401 70.7398C186.621 70.7398 190.901 57.9098 192.301 53.6898L192.431 53.2498L197.921 32.2998L203.411 53.2498L203.541 53.6898C204.941 57.9098 209.231 70.7398 222.441 70.7398C233.071 70.7398 240.291 62.2698 241.711 51.4698L246.321 2.33984H232.321C232.111 5.07984 229.601 32.5998 227.671 50.3398Z" fill="white"/>
<path d="M359.78 0.669922C349.45 0.669922 341.08 4.14993 335.2 10.7299C329.66 16.9199 326.73 25.4299 326.73 35.3299V68.9499H340.83V36.6699C340.83 30.4799 342.52 24.8899 345.58 20.9199C347.248 18.7626 349.404 17.032 351.871 15.8707C354.338 14.7093 357.045 14.1504 359.77 14.2399C362.551 14.1607 365.312 14.7241 367.839 15.8862C370.366 17.0482 372.591 18.7777 374.34 20.9399C377.51 24.9399 379.26 30.5799 379.26 36.8099V68.9499H393.36V35.1899C393.36 25.5099 390.29 16.8099 384.72 10.6999C378.73 4.13994 370.1 0.669922 359.78 0.669922Z" fill="white"/>
<path d="M257.52 97.3898C258.165 97.1964 258.734 96.8087 259.15 96.2798C259.578 95.7292 259.801 95.0468 259.78 94.3498C259.79 93.7223 259.612 93.1061 259.27 92.5798C258.912 92.0327 258.395 91.6072 257.79 91.3598C257.056 91.0548 256.265 90.9083 255.47 90.9298H250V104.19H255.71C256.514 104.211 257.313 104.054 258.05 103.73C258.661 103.469 259.183 103.034 259.55 102.48C259.911 101.92 260.095 101.265 260.08 100.6C260.09 99.8407 259.835 99.1018 259.36 98.5098C258.906 97.9216 258.251 97.5225 257.52 97.3898ZM252.66 93.0698H255.09C255.614 93.0368 256.132 93.193 256.55 93.5098C256.723 93.6647 256.859 93.8567 256.947 94.0714C257.035 94.2861 257.074 94.518 257.06 94.7498C257.073 94.98 257.034 95.2102 256.946 95.4232C256.858 95.6362 256.722 95.8265 256.55 95.9798C256.127 96.2848 255.611 96.4333 255.09 96.3998H252.66V93.0698ZM256.84 101.57C256.409 101.892 255.877 102.052 255.34 102.02H252.66V98.4498H255.28C255.835 98.4242 256.382 98.598 256.82 98.9398C257.01 99.1031 257.161 99.308 257.26 99.5385C257.358 99.7691 257.403 100.019 257.39 100.27C257.402 100.514 257.358 100.757 257.263 100.982C257.168 101.207 257.023 101.408 256.84 101.57V101.57Z" fill="white"/>
<path d="M268.481 96.9902L265.631 90.9302H262.621L267.131 99.5702V104.19H269.791V99.5702L274.271 90.9302H271.311L268.481 96.9902Z" fill="white"/>
<path d="M290.891 97.39C291.539 97.1966 292.111 96.8091 292.531 96.28C292.959 95.7294 293.182 95.047 293.161 94.35C293.167 93.7215 292.986 93.1054 292.641 92.58C292.283 92.0328 291.767 91.6074 291.161 91.36C290.427 91.0541 289.636 90.9075 288.841 90.93H283.371V104.19H289.091C289.898 104.216 290.701 104.062 291.441 103.74C292.053 103.479 292.574 103.044 292.941 102.49C293.297 101.928 293.482 101.275 293.471 100.61C293.481 99.8508 293.226 99.1119 292.751 98.52C292.294 97.9238 291.631 97.5205 290.891 97.39V97.39ZM286.031 93.07H288.441C288.968 93.0373 289.489 93.1932 289.911 93.51C290.086 93.6619 290.225 93.8514 290.317 94.0643C290.409 94.2773 290.451 94.5083 290.441 94.74C290.454 94.9702 290.415 95.2004 290.327 95.4134C290.239 95.6263 290.103 95.8166 289.931 95.97C289.504 96.275 288.985 96.4233 288.461 96.39H286.031V93.07ZM290.211 101.57C289.782 101.896 289.249 102.055 288.711 102.02H286.031V98.45H288.651C289.207 98.4226 289.754 98.5965 290.191 98.94C290.382 99.1033 290.532 99.3081 290.631 99.5387C290.73 99.7693 290.774 100.019 290.761 100.27C290.775 100.514 290.733 100.759 290.637 100.984C290.542 101.209 290.396 101.41 290.211 101.57V101.57Z" fill="white"/>
<path d="M305.102 99.1302C305.148 99.8882 304.896 100.634 304.401 101.21C304.131 101.453 303.815 101.64 303.472 101.761C303.128 101.881 302.765 101.932 302.401 101.91C302.038 101.933 301.674 101.883 301.331 101.763C300.987 101.643 300.671 101.455 300.401 101.21C299.907 100.634 299.656 99.8882 299.702 99.1302V90.9302H297.042V99.1202C297.012 100.121 297.257 101.11 297.751 101.98C298.194 102.738 298.852 103.347 299.642 103.73C300.485 104.128 301.408 104.33 302.341 104.32C303.281 104.332 304.211 104.13 305.061 103.73C305.887 103.359 306.584 102.75 307.061 101.98C307.575 101.116 307.831 100.124 307.801 99.1202V90.9302H305.121L305.102 99.1302Z" fill="white"/>
<path d="M320.171 91.7398C319.031 91.1788 317.772 90.901 316.501 90.9298H311.871V104.19H316.501C317.773 104.22 319.033 103.939 320.171 103.37C321.197 102.862 322.049 102.061 322.621 101.07C323.221 100.006 323.525 98.8008 323.501 97.5798C323.525 96.3555 323.222 95.147 322.621 94.0798C322.054 93.0744 321.201 92.26 320.171 91.7398V91.7398ZM319.641 100.79C319.207 101.188 318.697 101.494 318.142 101.689C317.587 101.885 316.999 101.967 316.411 101.93H314.531V93.1698H316.441C317.032 93.1318 317.624 93.2171 318.18 93.4202C318.736 93.6234 319.244 93.9399 319.671 94.3498C320.067 94.7849 320.372 95.2948 320.568 95.8496C320.763 96.4043 320.846 96.9925 320.811 97.5798C320.843 98.1661 320.756 98.753 320.555 99.3047C320.354 99.8565 320.043 100.362 319.641 100.79V100.79Z" fill="white"/>
<path d="M332.441 98.8501H337.001C336.847 99.7263 336.399 100.524 335.731 101.11C335.021 101.662 334.139 101.946 333.241 101.91C332.483 101.925 331.736 101.742 331.071 101.38C330.449 101.023 329.942 100.496 329.611 99.8601C329.257 99.139 329.082 98.3432 329.101 97.5402C329.085 96.7502 329.26 95.968 329.611 95.2602C329.928 94.6241 330.425 94.0954 331.041 93.7401C331.676 93.3755 332.399 93.1922 333.131 93.2101C333.777 93.1946 334.417 93.3425 334.991 93.6401C335.524 93.9342 335.959 94.3795 336.241 94.9201H339.301C338.927 93.6623 338.119 92.5779 337.021 91.8601C335.865 91.1076 334.509 90.724 333.131 90.7602C331.921 90.7464 330.729 91.0462 329.671 91.6301C328.65 92.1891 327.808 93.0244 327.241 94.0402C326.641 95.1079 326.338 96.316 326.361 97.5402C326.338 98.7611 326.642 99.9659 327.241 101.03C327.816 102.042 328.656 102.879 329.671 103.45C330.736 104.025 331.93 104.318 333.141 104.3C334.209 104.319 335.265 104.079 336.221 103.6C337.092 103.156 337.851 102.52 338.441 101.74C339.017 100.985 339.407 100.104 339.581 99.1701V96.8601H332.441V98.8501Z" fill="white"/>
<path d="M343.109 104.19H350.809V102.02H345.769V98.5101H350.239V96.4001H345.769V93.0702H350.809V90.9102H343.109V104.19Z" fill="white"/>
<path d="M354.039 93.0702H357.569V104.19H360.239V93.0702H363.769V90.9302H354.039V93.0702Z" fill="white"/>
<path d="M375.941 90.9302H373.281V104.19H375.941V90.9302Z" fill="white"/>
<path d="M388.768 100.03L382.748 90.9102H380.078V104.19H382.748V95.0901L388.768 104.19H391.428V90.9102H388.768V100.03Z" fill="white"/>
<path d="M402.85 97.2199C402.169 96.9093 401.463 96.6552 400.74 96.4599C400.11 96.2699 399.62 96.0999 399.26 95.9599C398.939 95.822 398.645 95.6291 398.39 95.3899C398.278 95.2713 398.19 95.1316 398.132 94.9788C398.073 94.8261 398.046 94.6633 398.05 94.4999C398.036 94.2854 398.069 94.0703 398.147 93.8699C398.224 93.6695 398.345 93.4886 398.5 93.3399C398.859 93.0592 399.306 92.9172 399.76 92.9399C400.275 92.9113 400.781 93.0753 401.18 93.3999C401.357 93.5298 401.502 93.6981 401.604 93.8921C401.706 94.0861 401.763 94.3007 401.77 94.5199H404.7C404.681 93.9799 404.542 93.4509 404.295 92.9705C404.048 92.49 403.698 92.0699 403.27 91.7399C402.311 91.0358 401.139 90.6827 399.95 90.7399C399.116 90.7196 398.287 90.8799 397.52 91.2099C396.852 91.4861 396.276 91.9476 395.86 92.5399C395.471 93.1337 395.266 93.8296 395.27 94.5399C395.239 95.2506 395.439 95.9524 395.84 96.5399C396.214 97.0131 396.689 97.396 397.23 97.6599C397.917 97.9523 398.622 98.1995 399.34 98.3999C399.843 98.5343 400.337 98.6979 400.82 98.8899C401.164 99.0155 401.475 99.2172 401.73 99.4799C401.854 99.6142 401.95 99.7718 402.011 99.9435C402.073 100.115 402.1 100.298 402.09 100.48C402.099 100.704 402.055 100.927 401.963 101.132C401.871 101.336 401.734 101.517 401.56 101.66C401.141 101.974 400.624 102.129 400.1 102.1C399.574 102.128 399.056 101.956 398.65 101.62C398.301 101.28 398.097 100.817 398.08 100.33H395.23C395.232 101.085 395.466 101.822 395.9 102.44C396.348 103.047 396.953 103.521 397.65 103.81C398.447 104.132 399.301 104.292 400.16 104.28C401.03 104.3 401.893 104.119 402.68 103.75C403.345 103.423 403.906 102.917 404.3 102.29C404.664 101.686 404.854 100.994 404.85 100.29C404.886 99.5757 404.678 98.8706 404.26 98.2899C403.885 97.8238 403.401 97.4565 402.85 97.2199V97.2199Z" fill="white"/>
<path d="M411.34 90.9302H408.68V104.19H411.34V90.9302Z" fill="white"/>
<path d="M420.922 98.8501H425.442C425.284 99.727 424.833 100.524 424.162 101.11C423.453 101.665 422.571 101.948 421.672 101.91C420.918 101.925 420.173 101.742 419.512 101.38C418.89 101.023 418.383 100.496 418.052 99.8601C417.689 99.1416 417.511 98.3445 417.532 97.5401C417.514 96.7488 417.693 95.9655 418.052 95.2601C418.365 94.6247 418.859 94.096 419.472 93.7401C420.107 93.3754 420.83 93.1921 421.562 93.2101C422.208 93.1933 422.848 93.3412 423.422 93.6401C423.956 93.9364 424.394 94.3809 424.682 94.9201H427.742C427.368 93.6623 426.56 92.5779 425.462 91.8601C424.303 91.1079 422.943 90.7244 421.562 90.7601C420.353 90.7464 419.161 91.0461 418.102 91.6301C417.086 92.1946 416.245 93.0286 415.672 94.0401C415.081 95.1107 414.781 96.3175 414.802 97.5401C414.783 98.7593 415.083 99.9624 415.672 101.03C416.253 102.038 417.092 102.873 418.102 103.45C419.17 104.025 420.368 104.318 421.582 104.3C422.65 104.319 423.707 104.079 424.662 103.6C425.55 103.147 426.323 102.497 426.922 101.7C427.49 100.94 427.88 100.061 428.062 99.1301V96.8201H420.882L420.922 98.8501Z" fill="white"/>
<path d="M439.93 96.3802H434.25V90.9302H431.59V104.19H434.25V98.5502H439.93V104.19H442.59V90.9302H439.93V96.3802Z" fill="white"/>
<path d="M446.02 93.0702H449.56V104.19H452.22V93.0702H455.75V90.9302H446.02V93.0702Z" fill="white"/>
</svg>
