<?xml version="1.0" encoding="UTF-8" standalone="no"?><!DOCTYPE svg PUBLIC "-//W3C//DTD SVG 1.1//EN" "http://www.w3.org/Graphics/SVG/1.1/DTD/svg11.dtd"><svg width="100%" height="100%" viewBox="0 0 1563 1563" version="1.1" xmlns="http://www.w3.org/2000/svg" xmlns:xlink="http://www.w3.org/1999/xlink" xml:space="preserve" xmlns:serif="http://www.serif.com/" style="fill-rule:evenodd;clip-rule:evenodd;stroke-linejoin:round;stroke-miterlimit:2;"><g><path d="M1139.19,1256.92l-271.66,0c-9.392,0 -17,-7.607 -17,-17l0,-245.912l-142.058,0l-0,245.912c-0,9.393 -7.611,17 -17,17l-271.662,0c-9.389,0 -17,-7.607 -17,-17l-0,-430.362c-0,-9.392 7.611,-17 17,-17c9.389,0 17,7.608 17,17l-0,413.362l237.662,0l-0,-245.912c-0,-9.392 7.611,-17 17,-17l176.058,0c9.386,0 17,7.608 17,17l0,245.912l237.66,0l0,-413.362c0,-9.392 7.608,-17 17,-17c9.385,0 17,7.608 17,17l0,430.362c0,9.393 -7.615,17 -17,17Z" style="fill-rule:nonzero;"/><path d="M1308.25,866.576c-4.349,-0 -8.698,-1.658 -12.02,-4.98l-514.98,-514.98l-514.979,514.98c-6.639,6.637 -17.403,6.637 -24.042,0c-6.639,-6.637 -6.639,-17.404 -0,-24.041l527,-527.002c6.639,-6.638 17.404,-6.638 24.041,0l527,527.002c6.637,6.637 6.637,17.404 0,24.041c-3.322,3.322 -7.671,4.98 -12.02,4.98Z" style="fill-rule:nonzero;"/><path d="M1095.04,653.367c-9.386,0 -17,-7.611 -17,-17l-0,-163.185c-0,-9.389 7.614,-17 17,-17c9.385,-0 17,7.611 17,17l-0,163.185c-0,9.389 -7.615,17 -17,17Z" style="fill-rule:nonzero;"/></g><g id="homepage__home__house.eps"></g></svg>