<svg xmlns="http://www.w3.org/2000/svg" width="375" viewBox="0 0 375 375" height="375" version="1.0">
  <defs>
    <clipPath id="a">
      <path d="M 93 72.132812 L 291.417969 72.132812 L 291.417969 261.132812 L 93 261.132812 Z M 93 72.132812" />
    </clipPath>
    <clipPath id="b">
      <path d="M 92.667969 72.132812 L 291 72.132812 L 291 261 L 92.667969 261 Z M 92.667969 72.132812" />
    </clipPath>
    <clipPath id="c">
      <path d="M 264 196 L 361 196 L 361 296 L 264 296 Z M 264 196" />
    </clipPath>
    <clipPath id="d">
      <path
        d="M 283.351562 177.625 L 374.820312 215.5 L 338.664062 302.8125 L 247.195312 264.933594 Z M 283.351562 177.625" />
    </clipPath>
    <clipPath id="e">
      <path
        d="M 283.351562 177.625 L 374.820312 215.5 L 338.664062 302.8125 L 247.195312 264.933594 Z M 283.351562 177.625" />
    </clipPath>
    <clipPath id="f">
      <path
        d="M 283.351562 177.625 L 374.820312 215.5 L 338.664062 302.8125 L 247.195312 264.933594 Z M 283.351562 177.625" />
    </clipPath>
    <clipPath id="g">
      <path d="M 14 184 L 111 184 L 111 284 L 14 284 Z M 14 184" />
    </clipPath>
    <clipPath id="h">
      <path
        d="M 36.144531 177.625 L 127.613281 215.5 L 91.460938 302.8125 L -0.0078125 264.933594 Z M 36.144531 177.625" />
    </clipPath>
    <clipPath id="i">
      <path
        d="M 91.640625 302.859375 L 0.175781 264.984375 L 36.328125 177.675781 L 127.796875 215.550781 Z M 91.640625 302.859375" />
    </clipPath>
    <clipPath id="j">
      <path
        d="M 91.640625 302.859375 L 0.175781 264.984375 L 36.328125 177.675781 L 127.796875 215.550781 Z M 91.640625 302.859375" />
    </clipPath>
    <clipPath id="k">
      <path d="M 14 185 L 111 185 L 111 284 L 14 284 Z M 14 185" />
    </clipPath>
    <clipPath id="l">
      <path
        d="M 36.144531 177.625 L 127.613281 215.5 L 91.460938 302.8125 L -0.0078125 264.933594 Z M 36.144531 177.625" />
    </clipPath>
    <clipPath id="m">
      <path
        d="M 91.640625 302.859375 L 0.175781 264.984375 L 36.328125 177.675781 L 127.796875 215.550781 Z M 91.640625 302.859375" />
    </clipPath>
    <clipPath id="n">
      <path
        d="M 91.640625 302.859375 L 0.175781 264.984375 L 36.328125 177.675781 L 127.796875 215.550781 Z M 91.640625 302.859375" />
    </clipPath>
  </defs>
  <g clip-path="url(#a)">
    <path fill="#FFF"
      d="M 192.300781 72.78125 L 222.917969 134.753906 L 291.417969 144.695312 L 241.839844 192.964844 L 253.578125 261.078125 L 192.300781 228.921875 L 130.980469 261.078125 L 142.683594 192.964844 L 93.144531 144.695312 L 161.640625 134.753906 Z M 192.300781 72.78125" />
  </g>
  <g clip-path="url(#b)" fill="#FFF">
    <path
      d="M 191.824219 72.1875 L 222.484375 134.160156 L 290.980469 144.097656 L 241.402344 192.371094 L 253.101562 260.484375 L 191.824219 228.328125 L 130.546875 260.484375 L 142.246094 192.371094 L 92.667969 144.097656 L 161.164062 134.160156 Z M 191.824219 72.1875" />
    <path
      d="M 191.824219 72.1875 L 222.484375 134.160156 L 290.980469 144.097656 L 241.402344 192.371094 L 253.101562 260.484375 L 191.824219 228.328125 L 130.546875 260.484375 L 142.246094 192.371094 L 92.667969 144.097656 L 161.164062 134.160156 Z M 191.824219 72.1875" />
    <path
      d="M 191.824219 72.1875 L 222.484375 134.160156 L 290.980469 144.097656 L 241.402344 192.371094 L 253.101562 260.484375 L 191.824219 228.328125 L 130.546875 260.484375 L 142.246094 192.371094 L 92.667969 144.097656 L 161.164062 134.160156 Z M 191.824219 72.1875" />
  </g>
  <g clip-path="url(#c)">
    <g clip-path="url(#d)">
      <g clip-path="url(#e)">
        <g clip-path="url(#f)" fill="#FFF">
          <path
            d="M 329.078125 196.914062 L 331.316406 231.375 L 360.9375 249.023438 L 328.886719 261.871094 L 321.261719 295.574219 L 299.210938 269.042969 L 264.839844 272.210938 L 283.253906 242.976562 L 269.6875 211.238281 L 303.113281 219.699219 Z M 329.078125 196.914062" />
          <path
            d="M 328.972656 196.546875 L 331.230469 231.019531 L 360.851562 248.664062 L 328.800781 261.515625 L 321.15625 295.207031 L 299.105469 268.675781 L 264.753906 271.851562 L 283.167969 242.617188 L 269.585938 210.871094 L 303.007812 219.332031 Z M 328.972656 196.546875" />
          <path
            d="M 328.972656 196.546875 L 331.230469 231.019531 L 360.851562 248.664062 L 328.800781 261.515625 L 321.15625 295.207031 L 299.105469 268.675781 L 264.753906 271.851562 L 283.167969 242.617188 L 269.585938 210.871094 L 303.007812 219.332031 Z M 328.972656 196.546875" />
          <path
            d="M 328.972656 196.546875 L 331.230469 231.019531 L 360.851562 248.664062 L 328.800781 261.515625 L 321.15625 295.207031 L 299.105469 268.675781 L 264.753906 271.851562 L 283.167969 242.617188 L 269.585938 210.871094 L 303.007812 219.332031 Z M 328.972656 196.546875" />
        </g>
      </g>
    </g>
  </g>
  <g clip-path="url(#g)">
    <g clip-path="url(#h)">
      <g clip-path="url(#i)">
        <g clip-path="url(#j)">
          <path fill="#FFF"
            d="M 45.914062 283.574219 L 43.675781 249.109375 L 14.054688 231.464844 L 46.105469 218.613281 L 53.730469 184.914062 L 75.78125 211.445312 L 110.152344 208.277344 L 91.738281 237.511719 L 105.304688 269.25 L 71.878906 260.789062 Z M 45.914062 283.574219" />
        </g>
      </g>
    </g>
  </g>
  <g clip-path="url(#k)">
    <g clip-path="url(#l)">
      <g clip-path="url(#m)">
        <g clip-path="url(#n)" fill="#FFF">
          <path
            d="M 46.019531 283.9375 L 43.765625 249.464844 L 14.140625 231.820312 L 46.191406 218.972656 L 53.835938 185.277344 L 75.886719 211.808594 L 110.238281 208.632812 L 91.824219 237.867188 L 105.410156 269.613281 L 71.984375 261.152344 Z M 46.019531 283.9375" />
          <path
            d="M 46.019531 283.9375 L 43.765625 249.464844 L 14.140625 231.820312 L 46.191406 218.972656 L 53.835938 185.277344 L 75.886719 211.808594 L 110.238281 208.632812 L 91.824219 237.867188 L 105.410156 269.613281 L 71.984375 261.152344 Z M 46.019531 283.9375" />
          <path
            d="M 46.019531 283.9375 L 43.765625 249.464844 L 14.140625 231.820312 L 46.191406 218.972656 L 53.835938 185.277344 L 75.886719 211.808594 L 110.238281 208.632812 L 91.824219 237.867188 L 105.410156 269.613281 L 71.984375 261.152344 Z M 46.019531 283.9375" />
        </g>
      </g>
    </g>
  </g>
</svg>