<?xml version="1.0" encoding="UTF-8"?>
<svg width="1436px" height="376px" viewBox="0 0 1436 376" version="1.1" xmlns="http://www.w3.org/2000/svg" xmlns:xlink="http://www.w3.org/1999/xlink">
    <!-- Generator: sketchtool 63.1 (101010) - https://sketch.com -->
    <title>A6355BB9-3305-447F-A44B-25004EC41CF7@1x</title>
    <desc>Created with sketchtool.</desc>
    <defs>
        <rect id="path-1" x="0" y="0" width="1438" height="376" rx="3"></rect>
        <polygon id="path-3" points="0 476.189987 487.008212 476.189987 487.008212 0.39352499 0 0.39352499"></polygon>
    </defs>
    <g id="Welcome" stroke="none" stroke-width="1" fill="none" fill-rule="evenodd">
        <g id="Desktop" transform="translate(0.000000, -863.000000)">
            <g id="Fichier-1-8" transform="translate(0.000000, 863.000000)">
                <g id="Group-22">
                    <mask id="mask-2" fill="white">
                        <use xlink:href="#path-1"></use>
                    </mask>
                    <use id="Mask" fill-opacity="0.1" fill="#697CCC" xlink:href="#path-1"></use>
                    <g id="Group-153" mask="url(#mask-2)">
                        <g transform="translate(849.000000, 15.000000)" id="Group-152">
                            <g>
                                <polygon id="Fill-1" fill="#DBE8FF" points="16.7210996 229.898289 347.075676 229.898289 347.075676 43.4694138 16.7210996 43.4694138"></polygon>
                                <polygon id="Fill-2" fill="#F24841" points="354.223971 216.962454 418.649704 216.962454 418.649704 183.149995 354.223971 183.149995"></polygon>
                                <g id="Group-151" transform="translate(0.000000, 0.101475)">
                                    <path d="M339.107513,57.1644795 C336.441938,54.4993996 333.776363,51.8338246 331.111283,49.1682497 C330.486593,48.5435597 329.517383,49.5127697 330.142073,50.1374597 L338.138303,58.1336895 C338.762993,58.7583794 339.732203,57.7891695 339.107513,57.1644795" id="Fill-3" fill="#F24841"></path>
                                    <path d="M331.111134,58.133937 L339.107364,50.1377072 C339.732054,49.5130172 338.762844,48.5433122 338.138154,49.1684972 C335.473074,51.8335771 332.807499,54.4991521 330.141924,57.164727 C329.517234,57.788922 330.486444,58.7586269 331.111134,58.133937" id="Fill-5" fill="#F24841"></path>
                                    <mask id="mask-4" fill="white">
                                        <use xlink:href="#path-3"></use>
                                    </mask>
                                    <g id="Clip-8"></g>
                                    <polygon id="Fill-7" fill="#FFFFFF" mask="url(#mask-4)" points="16.7210996 63.8153983 347.075676 63.8153983 347.075676 62.4447433 16.7210996 62.4447433"></polygon>
                                    <polygon id="Fill-9" fill="#FFFFFF" mask="url(#mask-4)" points="266.314943 106.768527 330.740676 106.768527 330.740676 72.9560681 266.314943 72.9560681"></polygon>
                                    <polygon id="Fill-10" fill="#FFFFFF" mask="url(#mask-4)" points="266.314943 106.768527 330.740676 106.768527 330.740676 72.9560681 266.314943 72.9560681"></polygon>
                                    <polygon id="Fill-11" fill="#C4DBFF" mask="url(#mask-4)" points="139.404866 146.520491 254.321093 146.520491 254.321093 72.9560681 139.404866 72.9560681"></polygon>
                                    <polygon id="Fill-12" fill="#C4DBFF" mask="url(#mask-4)" points="139.404866 218.688519 236.390214 218.688519 236.390214 156.602651 139.404866 156.602651"></polygon>
                                    <path d="M237.241911,83.1432668 C226.439526,86.2553317 223.355676,97.6829014 218.536356,106.458756 C215.530716,111.931971 210.681201,117.658626 203.936332,117.963051 C198.332437,118.215996 194.242747,114.119871 190.677262,110.364801 C184.381357,103.735266 177.537982,98.3640214 167.782523,100.182156 C158.704718,101.874066 152.255858,109.748031 151.410893,118.772871 C151.328228,119.651001 152.699873,119.645556 152.781548,118.772871 C153.892328,106.914156 165.354548,98.6461714 176.965267,101.938911 C186.186622,104.553996 189.777847,114.442611 198.182452,118.181841 C205.934152,121.630506 213.643776,116.542896 217.921071,110.147001 C223.827411,101.315211 225.971256,87.8165617 237.606231,84.4649168 C238.452186,84.2213768 238.092321,82.8982418 237.241911,83.1432668" id="Fill-13" fill="#FFFFFF" mask="url(#mask-4)"></path>
                                    <path d="M118.362862,104.483657 L37.4877845,104.483657 C36.6056945,104.483657 36.6042095,105.854807 37.4877845,105.854807 L118.362862,105.854807 C119.244952,105.854807 119.246437,104.483657 118.362862,104.483657" id="Fill-14" fill="#0051B6" mask="url(#mask-4)"></path>
                                    <path d="M118.362862,116.82069 L37.4877845,116.82069 C36.6056945,116.82069 36.6042095,118.191345 37.4877845,118.191345 L118.362862,118.191345 C119.244952,118.191345 119.246437,116.82069 118.362862,116.82069" id="Fill-15" fill="#0051B6" mask="url(#mask-4)"></path>
                                    <path d="M118.362862,130.071345 L37.4877845,130.071345 C36.6056945,130.071345 36.6042095,131.442 37.4877845,131.442 L118.362862,131.442 C119.244952,131.442 119.246437,130.071345 118.362862,130.071345" id="Fill-16" fill="#0051B6" mask="url(#mask-4)"></path>
                                    <polygon id="Fill-17" fill="#FFA99C" mask="url(#mask-4)" points="36.826019 95.3454125 89.1435576 95.3454125 89.1435576 86.2072177 36.826019 86.2072177"></polygon>
                                    <polygon id="Fill-18" fill="#FFCB49" mask="url(#mask-4)" points="314.520022 87.5773777 326.171826 87.5773777 326.171826 77.6392629 314.520022 77.6392629"></polygon>
                                    <path d="M155.583347,118.997452 C155.763032,121.065067 153.900842,122.755492 151.825307,122.755492 C149.749772,122.755492 148.066772,121.072987 148.066772,118.997452 C148.066772,116.921917 149.749772,115.239412 151.825307,115.239412 C153.900842,115.239412 155.365547,116.491762 155.583347,118.997452" id="Fill-19" fill="#FFA99C" mask="url(#mask-4)"></path>
                                    <path d="M205.665862,119.384394 C205.845547,121.452009 203.983357,123.142434 201.907327,123.142434 C199.831792,123.142434 198.149287,121.459929 198.149287,119.384394 C198.149287,117.308859 199.831792,115.626354 201.907327,115.626354 C203.983357,115.626354 205.448062,116.878704 205.665862,119.384394" id="Fill-20" fill="#F24841" mask="url(#mask-4)"></path>
                                    <path d="M173.142333,100.771157 C173.322018,102.839267 171.459828,104.529197 169.384293,104.529197 C167.308758,104.529197 165.625758,102.846692 165.625758,100.771157 C165.625758,98.6956219 167.308758,97.0131169 169.384293,97.0131169 C171.459828,97.0131169 172.924533,98.2654669 173.142333,100.771157" id="Fill-21" fill="#FFA99C" mask="url(#mask-4)"></path>
                                    <path d="M234.141379,88.2629527 C234.321064,90.3305676 232.458874,92.0209926 230.383339,92.0209926 C228.307804,92.0209926 226.624804,90.3384876 226.624804,88.2629527 C226.624804,86.1874177 228.307804,84.5049128 230.383339,84.5049128 C232.458874,84.5049128 233.924074,85.7572627 234.141379,88.2629527" id="Fill-22" fill="#FFA99C" mask="url(#mask-4)"></path>
                                    <path d="M409.625656,193.215275 L381.867542,193.215275 C380.985452,193.215275 380.983967,194.58593 381.867542,194.58593 L409.625656,194.58593 C410.507251,194.58593 410.508736,193.215275 409.625656,193.215275" id="Fill-23" fill="#FFFFFF" mask="url(#mask-4)"></path>
                                    <path d="M409.625656,201.439849 L381.867542,201.439849 C380.985452,201.439849 380.983967,202.810504 381.867542,202.810504 L409.625656,202.810504 C410.507251,202.810504 410.508736,201.439849 409.625656,201.439849" id="Fill-24" fill="#FFFFFF" mask="url(#mask-4)"></path>
                                    <path d="M95.540888,37.168955 C95.483963,37.168955 95.427038,37.16252 95.370113,37.14767 C95.003318,37.053125 94.782548,36.679895 94.876103,36.313595 C95.223593,34.9602651 95.624543,33.6168351 96.067568,32.3214201 C96.190823,31.9625452 96.5823679,31.7744452 96.9377779,31.8942352 C97.2961579,32.0165002 97.4872279,32.4060651 97.3649629,32.7644451 C96.9333229,34.0271901 96.5417779,35.3359701 96.204188,36.65366 C96.124493,36.96353 95.845808,37.168955 95.540888,37.168955" id="Fill-25" fill="#F24841" mask="url(#mask-4)"></path>
                                    <path d="M138.573514,1.96618945 C138.220579,1.96618945 137.921104,1.69591946 137.891404,1.33803446 C137.859229,0.960844475 138.139894,0.629689483 138.516589,0.598009484 C141.147514,0.37723949 143.857144,0.334669491 146.522224,0.474259487 C146.899909,0.494059487 147.190474,0.816799478 147.170674,1.19497947 C147.150874,1.57266446 146.850904,1.86570445 146.449954,1.84342945 C143.846749,1.70680945 141.199984,1.74789445 138.631429,1.96371445 C138.612124,1.96569445 138.592819,1.96618945 138.573514,1.96618945 M162.005328,4.76343437 C161.934048,4.76343437 161.860788,4.75204937 161.789508,4.72878437 C159.335793,3.9120344 156.788028,3.25318941 154.217493,2.77006943 C153.845253,2.70027443 153.600228,2.34238944 153.670518,1.97014945 C153.740313,1.59790946 154.103148,1.35535946 154.470438,1.42317446 C157.102353,1.91718445 159.710013,2.59186943 162.221643,3.42742941 C162.581013,3.54721941 162.775548,3.9352994 162.656253,4.29417439 C162.560223,4.58176938 162.292428,4.76343437 162.005328,4.76343437 M123.201289,5.52226935 C122.929039,5.52226935 122.671144,5.35842436 122.563729,5.09013437 C122.424634,4.73769437 122.596894,4.33971439 122.948344,4.19962939 C125.396614,3.22942941 127.972099,2.43000444 130.603024,1.82610445 C130.969819,1.73997445 131.339584,1.97212945 131.424229,2.34090444 C131.509369,2.70967943 131.278699,3.07746442 130.909924,3.16260442 C128.346319,3.7506644 125.837659,4.52830938 123.454234,5.47425435 C123.371074,5.50692435 123.285439,5.52226935 123.201289,5.52226935 M176.113818,11.8374792 C175.977198,11.8374792 175.839093,11.7963942 175.719303,11.7122442 C173.622978,10.2331842 171.366768,8.88678426 169.013538,7.7116543 C168.675453,7.5423643 168.537348,7.13052431 168.706638,6.79194432 C168.875433,6.45336433 169.287273,6.31822933 169.626348,6.48553933 C172.040463,7.6913593 174.356568,9.07290426 176.509323,10.5915642 C176.818698,10.8098592 176.892453,11.2375392 176.674653,11.5469142 C176.540508,11.7360042 176.328648,11.8374792 176.113818,11.8374792 M109.711055,13.6699691 C109.52048,13.6699691 109.32941,13.5902741 109.194275,13.4348441 C108.94529,13.1492292 108.975485,12.7161042 109.260605,12.4676142 C111.25892,10.7266992 113.444839,9.13923426 115.756489,7.74927429 C116.078734,7.5542443 116.501464,7.6591843 116.697484,7.98340929 C116.892019,8.30812928 116.787079,8.72887927 116.463349,8.92440426 C114.219514,10.2732792 112.099925,11.8132242 110.161505,13.5011741 C110.03132,13.6145291 109.87094,13.6699691 109.711055,13.6699691 M187.329033,22.9036989 C187.115688,22.9036989 186.905313,22.8042039 186.771168,22.6175889 C185.272803,20.523244 183.569013,18.533344 181.708803,16.7033291 C181.439028,16.4375141 181.434573,16.0038941 181.700388,15.7341191 C181.964718,15.4638491 182.399823,15.4598891 182.669598,15.7261991 C184.586238,17.611654 186.341508,19.661944 187.885908,21.8196489 C188.106183,22.1275389 188.035398,22.5557139 187.727508,22.7759889 C187.606728,22.8621189 187.467138,22.9036989 187.329033,22.9036989 M99.8803549,25.9761638 C99.7699699,25.9761638 99.6585949,25.9494338 99.5546449,25.8934988 C99.2220049,25.7138138 99.0972649,25.2975188 99.2774449,24.9643838 C100.559495,22.5938289 102.048455,20.340589 103.703735,18.267529 C103.940345,17.972014 104.370995,17.923504 104.667005,18.159619 C104.963015,18.395734 105.01103,18.827374 104.774915,19.122889 C103.17062,21.1320939 101.726705,23.3175189 100.48376,25.6167938 C100.36001,25.8459788 100.123895,25.9761638 99.8803549,25.9761638 M194.085782,37.1255435 C193.785317,37.1255435 193.509602,36.9260585 193.425947,36.6221285 C192.730472,34.1020836 191.819672,31.6468837 190.718297,29.3248387 C190.555442,28.9827937 190.701467,28.5734287 191.043512,28.4115637 C191.386052,28.2496988 191.794427,28.3957237 191.956292,28.7372737 C193.092317,31.1310937 194.031332,33.6620286 194.747102,36.2583035 C194.848577,36.6231185 194.633747,37.0003085 194.268932,37.1007935 C194.208047,37.1176235 194.147162,37.1255435 194.085782,37.1255435" id="Fill-26" fill="#F24841" mask="url(#mask-4)"></path>
                                    <path d="M195.833528,49.0487072 C195.464258,49.0487072 195.159833,48.7541822 195.148943,48.3829322 C195.110828,47.0300973 195.019748,45.6673623 194.878673,44.3328423 C194.838083,43.9566423 195.111323,43.6185573 195.488018,43.5789573 C195.864713,43.5403473 196.201808,43.8121023 196.241408,44.1883023 C196.386443,45.5584623 196.480493,46.9563423 196.520093,48.3438272 C196.530488,48.7220072 196.232003,49.0383122 195.853823,49.0487072 L195.833528,49.0487072 Z" id="Fill-27" fill="#F24841" mask="url(#mask-4)"></path>
                                    <path d="M198.300806,51.5809786 C197.589491,52.5868186 196.877186,53.5921636 196.165376,54.5980036 L194.119046,52.0210336 C193.570091,51.3305086 192.606326,52.3061536 193.149836,52.9902436 C194.003711,54.0663736 194.858576,55.1425035 195.712946,56.2186335 C196.010936,56.5938435 196.562861,56.3998035 196.789571,56.0800335 C197.687996,54.8108535 198.586421,53.5416736 199.484846,52.2724936 C199.995686,51.5512786 198.807191,50.8661987 198.300806,51.5809786" id="Fill-28" fill="#F24841" mask="url(#mask-4)"></path>
                                    <path d="M289.887387,229.116832 C284.831952,220.087538 279.776517,211.058243 274.721082,202.028948 C273.859287,200.489003 271.490712,201.870053 272.353992,203.412968 C277.409427,212.441768 282.464862,221.471063 287.520297,230.500357 C288.382092,232.040302 290.750667,230.659252 289.887387,229.116832" id="Fill-29" fill="#F24841" mask="url(#mask-4)"></path>
                                    <path d="M289.32279,233.792256 C286.28448,250.045085 283.246665,266.29841 280.208355,282.55124 C279.88611,284.276314 282.52743,285.015349 282.851655,283.280374 C285.889965,267.02705 288.928275,250.77422 291.966585,234.520896 C292.28883,232.796316 289.647015,232.057281 289.32279,233.792256" id="Fill-30" fill="#F24841" mask="url(#mask-4)"></path>
                                    <path d="M294.301302,293.53524 L267.114417,293.53524 L267.114417,289.75938 C267.114417,284.33715 271.510017,279.942045 276.931752,279.942045 L284.483967,279.942045 C289.905702,279.942045 294.301302,284.33715 294.301302,289.75938 L294.301302,293.53524 Z" id="Fill-31" fill="#F24841" mask="url(#mask-4)"></path>
                                    <path d="M295.316448,231.850915 C295.556523,234.61351 293.068158,236.872195 290.295168,236.872195 C287.522178,236.872195 285.273888,234.623905 285.273888,231.850915 C285.273888,229.07743 287.522178,226.829635 290.295168,226.829635 C293.068158,226.829635 295.025388,228.50323 295.316448,231.850915" id="Fill-32" fill="#F24841" mask="url(#mask-4)"></path>
                                    <path d="M275.453088,204.321145 L219.708665,204.321145 L219.708665,200.545285 C219.708665,195.123055 224.104265,190.72795 229.526494,190.72795 L265.635753,190.72795 C271.057983,190.72795 275.453088,195.123055 275.453088,200.545285 L275.453088,204.321145 Z" id="Fill-33" fill="#F24841" mask="url(#mask-4)"></path>
                                    <path d="M240.903178,235.090393 C235.007728,253.076713 229.112278,271.063032 223.217324,289.049352 C222.803999,290.309622 224.788454,290.849667 225.199304,289.595337 C231.095248,271.609512 236.990698,253.623193 242.886148,235.636873 C243.298978,234.376603 241.314028,233.836558 240.903178,235.090393" id="Fill-34" fill="#000000" mask="url(#mask-4)"></path>
                                    <path d="M223.649706,288.56638 L190.408972,288.56638 C189.085837,288.56638 189.083362,290.622115 190.408972,290.622115 L223.649706,290.622115 C224.972841,290.622115 224.975316,288.56638 223.649706,288.56638" id="Fill-35" fill="#000000" mask="url(#mask-4)"></path>
                                    <polygon id="Fill-36" fill="#607DD0" mask="url(#mask-4)" points="176.24425 283.939912 196.291255 283.939912 196.291255 257.552453 176.24425 257.552453"></polygon>
                                    <path d="M202.860202,262.904195 C201.302932,260.13566 197.896837,261.70679 195.450547,260.975675 C194.180377,260.59601 193.637362,262.57997 194.904067,262.95815 C196.224727,263.35316 198.870007,262.788365 199.889707,263.264555 C202.459747,264.463445 201.414802,274.92725 201.089092,276.857255 C200.443612,280.683605 197.206312,280.488575 194.209087,280.295525 C192.887932,280.210385 192.893377,282.266615 194.209087,282.351755 C196.747447,282.515105 199.567957,282.59678 201.652402,280.87517 C204.074932,278.87339 204.319462,265.497995 202.860202,262.904195" id="Fill-37" fill="#607DD0" mask="url(#mask-4)"></path>
                                    <path d="M184.055053,245.136864 C182.248798,247.342583 182.022088,250.420493 183.642718,252.804413 C184.136233,253.529588 185.324233,252.844508 184.826758,252.112898 C183.573418,250.270508 183.590248,247.857383 185.024758,246.106568 C185.579158,245.429408 184.614898,244.454259 184.055053,245.136864" id="Fill-38" fill="#B1D8FE" mask="url(#mask-4)"></path>
                                    <path d="M187.139596,245.136864 C185.332846,247.342583 185.106136,250.420493 186.727261,252.804413 C187.220281,253.529588 188.408281,252.844508 187.910806,252.112898 C186.657961,250.270508 186.674296,247.857383 188.108806,246.106568 C188.663206,245.429408 187.698946,244.454259 187.139596,245.136864" id="Fill-39" fill="#B1D8FE" mask="url(#mask-4)"></path>
                                    <path d="M459.332565,140.21429 C458.54799,140.21429 457.90944,140.85284 457.90944,141.637415 C457.90944,142.421495 458.54799,143.06054 459.332565,143.06054 C459.74886,143.06054 460.163175,142.878875 460.442355,142.574945 C460.605705,142.39625 460.792815,142.09925 460.758165,141.696815 C460.67253,140.712755 460.19238,140.21429 459.332565,140.21429 M459.332565,144.431195 C457.792125,144.431195 456.538785,143.177855 456.538785,141.637415 C456.538785,140.09648 457.792125,138.84314 459.332565,138.84314 C460.907655,138.84314 461.97735,139.891055 462.12387,141.57752 C462.184755,142.278935 461.946165,142.96253 461.452155,143.501585 C460.910625,144.09212 460.138425,144.431195 459.332565,144.431195" id="Fill-40" fill="#F24841" mask="url(#mask-4)"></path>
                                    <path d="M468.78058,149.295659 C467.996005,149.295659 467.35795,149.934209 467.35795,150.718784 C467.35795,151.502864 467.996005,152.141414 468.78058,152.141414 C469.19638,152.141414 469.610695,151.960244 469.88938,151.656314 C470.05273,151.478114 470.24083,151.180619 470.20618,150.777689 C470.120545,149.794124 469.640395,149.295659 468.78058,149.295659 M468.78058,153.512564 C467.24014,153.512564 465.9868,152.259224 465.9868,150.718784 C465.9868,149.177849 467.24014,147.924509 468.78058,147.924509 C470.35567,147.924509 471.425365,148.972424 471.571885,150.658889 L471.571885,150.659384 C471.63277,151.361294 471.393685,152.044394 470.899675,152.583449 C470.35864,153.173489 469.585945,153.512564 468.78058,153.512564" id="Fill-41" fill="#F24841" mask="url(#mask-4)"></path>
                                    <path d="M267.685598,173.936065 L485.638052,173.936065 L485.638052,112.709022 L267.685598,112.709022 L267.685598,173.936065 Z M266.314943,175.30672 L487.008212,175.30672 L487.008212,111.337872 L266.314943,111.337872 L266.314943,175.30672 Z" id="Fill-42" fill="#003567" mask="url(#mask-4)"></path>
                                    <path d="M378.829776,138.295918 L284.820369,138.295918 L284.820369,153.031572 L364.190152,153.031572 C369.042142,148.092463 373.939672,143.197903 378.829776,138.295918" id="Fill-43" fill="#0084FD" mask="url(#mask-4)"></path>
                                    <path d="M393.34674,138.295918 L387.924015,138.295918 C383.045295,143.221168 378.132915,148.112758 373.247761,153.031572 L378.61059,153.031572 C383.52297,148.119688 388.434855,143.207803 393.34674,138.295918" id="Fill-44" fill="#0084FD" mask="url(#mask-4)"></path>
                                    <path d="M408.242181,138.295918 L402.819456,138.295918 C397.940241,143.221168 393.028356,148.112758 388.143201,153.031572 L393.506031,153.031572 C398.417916,148.119688 403.329801,143.207803 408.242181,138.295918" id="Fill-45" fill="#0084FD" mask="url(#mask-4)"></path>
                                    <path d="M423.114406,138.295918 L417.800581,138.295918 C412.854541,143.174638 407.954041,148.099393 403.061461,153.031572 L408.378256,153.031572 L423.114406,138.295918 Z" id="Fill-46" fill="#0084FD" mask="url(#mask-4)"></path>
                                    <path d="M438.009846,138.295918 L432.696022,138.295918 C427.749487,143.174638 422.849482,148.099393 417.956407,153.031572 L423.273697,153.031572 L438.009846,138.295918 Z" id="Fill-47" fill="#0084FD" mask="url(#mask-4)"></path>
                                    <path d="M452.396279,139.947931 L452.396279,138.296116 L447.976424,138.296116 C443.103149,143.206516 438.228389,148.115431 433.360559,153.03177 L439.255019,153.03177 C443.633294,148.668346 448.003649,144.296506 452.396279,139.947931" id="Fill-48" fill="#0084FD" mask="url(#mask-4)"></path>
                                    <path d="M448.391333,153.031572 L452.396378,153.031572 L452.396378,149.037418 C451.061363,150.368968 449.724863,151.699032 448.391333,153.031572" id="Fill-49" fill="#0084FD" mask="url(#mask-4)"></path>
                                    <path d="M469.577679,139.829725 C465.576099,143.853085 461.574519,147.87595 457.572939,151.899309 C456.950229,152.525484 457.918944,153.495189 458.542149,152.868519 C462.543729,148.84516 466.545309,144.822295 470.546889,140.798935 C471.169599,140.17276 470.200884,139.203055 469.577679,139.829725" id="Fill-50" fill="#F24841" mask="url(#mask-4)"></path>
                                    <path d="M356.27733,286.12905 C356.04468,284.43714 356.29515,282.77196 356.764905,281.15529 L303.025726,281.15529 C300.093346,284.66583 300.398266,287.495745 303.025726,289.837095 L358.076655,289.837095 C357.139125,288.914415 356.49117,287.685825 356.27733,286.12905" id="Fill-51" fill="#B1D8FE" mask="url(#mask-4)"></path>
                                    <path d="M346.407277,276.300132 C346.538452,275.788797 346.732492,275.315577 346.972567,274.872552 L303.025478,274.872552 C301.070229,276.906507 301.135569,279.159747 303.025478,281.612472 L347.976427,281.612472 C346.667152,280.193802 345.843472,278.492982 346.407277,276.300132" id="Fill-52" fill="#B1D8FE" mask="url(#mask-4)"></path>
                                    <path d="M348.261151,281.327006 L302.625617,281.327006 C302.427617,281.327006 302.239517,281.241371 302.109332,281.091881 C300.917868,279.726671 299.943708,277.474916 302.068247,274.503431 C302.196452,274.323251 302.403857,274.216331 302.625617,274.216331 L347.860696,274.216331 C348.239866,274.216331 348.546271,274.522736 348.546271,274.901906 C348.546271,275.280086 348.239866,275.586491 347.860696,275.586491 L302.986967,275.586491 C301.924203,277.218011 301.911333,278.619356 302.948852,279.955856 L348.261151,279.955856 C348.640321,279.955856 348.946726,280.262756 348.946726,280.641431 C348.946726,281.020601 348.640321,281.327006 348.261151,281.327006" id="Fill-53" fill="#5E96CA" mask="url(#mask-4)"></path>
                                    <path d="M358.370437,290.322541 L302.325548,290.322541 C302.104778,290.322541 301.897374,290.216116 301.768674,290.036926 C299.694129,287.144641 299.687694,284.073661 301.751349,280.909622 C301.878069,280.716077 302.094383,280.598267 302.325548,280.598267 L357.879397,280.598267 C358.258072,280.598267 358.564972,280.905662 358.564972,281.283842 C358.564972,281.663012 358.258072,281.969417 357.879397,281.969417 L302.704718,281.969417 C301.218234,284.426101 301.211304,286.716466 302.685908,288.951391 L358.370437,288.951391 C358.749607,288.951391 359.056012,289.258291 359.056012,289.636966 C359.056012,290.016136 358.749607,290.322541 358.370437,290.322541" id="Fill-54" fill="#5E96CA" mask="url(#mask-4)"></path>
                                    <path d="M352.787184,283.197264 L303.497065,283.197264 C303.055525,283.197264 303.05503,283.882839 303.497065,283.882839 L352.787184,283.882839 C353.228229,283.882839 353.229219,283.197264 352.787184,283.197264" id="Fill-55" fill="#FFFFFF" mask="url(#mask-4)"></path>
                                    <path d="M348.189574,285.396252 L324.200885,285.396252 C323.75984,285.396252 323.759345,286.081827 324.200885,286.081827 L348.189574,286.081827 C348.630619,286.081827 348.631609,285.396252 348.189574,285.396252" id="Fill-56" fill="#FFFFFF" mask="url(#mask-4)"></path>
                                    <path d="M13.0726527,39.2915645 C9.09532776,34.5846096 5.11849786,29.8771597 1.14117297,25.1702048 C0.571427985,24.4955199 -0.39431699,25.4696798 0.171962995,26.1399098 L12.1034427,40.2607744 C12.6736827,40.9354594 13.6389326,39.9617944 13.0726527,39.2915645" id="Fill-57" fill="#B1D8FE" mask="url(#mask-4)"></path>
                                    <path d="M257.883014,343.069542 C256.740554,340.100037 255.598094,337.130037 254.455634,334.160037 C254.142299,333.344772 252.816689,333.698697 253.133984,334.523862 L256.560869,343.433862 C256.874699,344.249127 258.200309,343.895202 257.883014,343.069542" id="Fill-58" fill="#B1D8FE" mask="url(#mask-4)"></path>
                                    <path d="M265.118033,346.820206 C264.090908,342.593401 263.063783,338.366597 262.036163,334.140287 C261.828263,333.282947 260.506118,333.646277 260.714513,334.504607 C261.741638,338.730917 262.768763,342.957721 263.795888,347.184526 C264.004283,348.041371 265.326428,347.678536 265.118033,346.820206" id="Fill-59" fill="#B1D8FE" mask="url(#mask-4)"></path>
                                    <path d="M341.730913,26.4319598 C340.123153,28.5574897 338.515394,30.6835147 336.907634,32.8095396 C336.376004,33.5129346 337.565489,34.1970246 338.091179,33.5010546 C339.699434,31.3755247 341.307193,29.2494997 342.914953,27.1234748 C343.447078,26.4200798 342.257098,25.7364848 341.730913,26.4319598" id="Fill-61" fill="#B1D8FE" mask="url(#mask-4)"></path>
                                    <path d="M334.004756,26.0957558 C332.519756,27.9232958 331.034756,29.7508357 329.549756,31.5788707 C328.998326,32.2575156 329.962091,33.2331606 330.518966,32.5480806 C332.003966,30.7200457 333.488966,28.8925057 334.973966,27.0649658 C335.525396,26.3858258 334.561631,25.4106758 334.004756,26.0957558" id="Fill-63" fill="#B1D8FE" mask="url(#mask-4)"></path>
                                    <path d="M266.771778,457.570167 C239.228494,451.746987 245.296204,436.780167 238.328584,390.288284 C231.187714,342.64404 228.965659,333.87858 190.87046,330.25419 C183.267756,349.782435 175.931361,369.511649 170.763066,389.819519 C180.632376,389.367089 186.696126,388.918124 186.696126,388.918124 C186.696126,388.918124 185.325471,396.571318 220.051205,475.161971 L284.363088,475.161971 C284.363088,475.161971 286.762353,461.796972 266.771778,457.570167" id="Fill-66" fill="#F24841" mask="url(#mask-4)"></path>
                                    <path d="M141.689291,327.233403 C129.388047,326.517633 117.472407,326.547828 106.291842,325.843938 C105.552312,321.636933 104.950887,315.078679 104.470242,307.908109 C78.8643879,308.644174 53.2971436,310.602889 27.7808843,312.892264 C27.2804393,317.461114 26.8646393,322.164108 26.5448693,327.004713 C21.2904444,406.509136 91.8685326,390.745862 131.180442,390.745862 C152.117456,390.745862 170.200795,389.903372 179.663215,389.362832 C185.312155,369.951902 189.663205,350.108343 195.237895,330.716223 C195.237895,330.715728 195.237895,330.715233 195.237895,330.714738 C182.489665,329.239638 165.287921,328.606533 141.689291,327.233403" id="Fill-68" fill="#FFCB49" mask="url(#mask-4)"></path>
                                    <path d="M169.543683,343.706656 C155.998008,343.131466 142.462234,342.338476 128.942794,341.318281 C122.183074,340.808431 115.427809,340.242151 108.677495,339.619937 C105.463955,339.323927 102.240515,339.064547 99.0368749,338.676962 C96.013415,338.311157 92.889965,337.732502 90.2456751,336.140087 C84.7378103,332.824082 83.4438803,326.010407 82.4588303,320.162972 C82.3860653,319.728857 81.7252403,319.912997 81.7980053,320.345132 C82.6202003,325.229297 83.5913903,330.596582 87.0440152,334.390757 C90.8362101,338.557172 96.6445399,339.147707 101.928665,339.664982 C116.321284,341.074246 130.739644,342.223636 145.173349,343.120081 C153.292338,343.624981 161.416773,344.046721 169.543683,344.392231 C169.984728,344.411041 169.984233,343.725466 169.543683,343.706656" id="Fill-72" fill="#FFFFFF" mask="url(#mask-4)"></path>
                                    <path d="M57.923067,371.952593 C57.696357,371.352158 56.563302,370.519073 56.139582,370.049813 C55.556967,369.404828 54.986232,368.748458 54.4288621,368.081693 C53.2091821,366.620948 52.0493971,365.110703 50.9549522,363.553928 C46.8523923,357.719364 43.6888473,351.280404 41.5266874,344.486529 C41.4662974,344.297439 41.2940374,344.213289 41.1049474,344.246949 C37.8587375,344.824119 34.6120326,345.401784 31.3658227,345.978954 C30.9322027,346.056669 31.1158477,346.717494 31.5479827,346.640274 C34.6872726,346.081914 37.8265625,345.523059 40.9658524,344.964699 C42.9933724,351.243774 45.8584323,357.227334 49.5427172,362.705498 C51.3375871,365.374538 53.3151121,367.923293 55.460937,370.319588 C55.994547,370.915568 56.939007,371.628368 57.123642,372.392153 C57.320157,373.203458 56.897427,374.255828 56.725662,375.071093 C56.286102,377.159003 55.846542,379.246418 55.406982,381.334328 C55.316397,381.764483 55.976727,381.948623 56.067807,381.516488 C56.484597,379.538468 56.900892,377.560448 57.317187,375.582923 C57.527067,374.587478 58.283427,372.906953 57.923067,371.952593" id="Fill-73" fill="#FFFFFF" mask="url(#mask-4)"></path>
                                    <path d="M104.107457,326.091141 L98.9668819,325.576836 C98.5283119,325.533276 98.5317769,326.218851 98.9668819,326.262411 L104.107457,326.776221 C104.546027,326.820276 104.543057,326.134701 104.107457,326.091141" id="Fill-74" fill="#FFFFFF" mask="url(#mask-4)"></path>
                                    <path d="M110.241546,209.794409 C109.410936,209.878064 87.2532517,228.977638 87.2532517,228.977638 L75.693517,205.478504 L101.793876,195.104294 L110.241546,209.794409 Z" id="Fill-75" fill="#F24841" mask="url(#mask-4)"></path>
                                    <path d="M103.255463,215.354199 C106.971923,212.244114 109.947368,209.824059 110.241398,209.794359 L107.098643,204.329065 C104.419703,207.38074 102.596618,211.661004 103.255463,215.354199" id="Fill-76" fill="#000000" mask="url(#mask-4)"></path>
                                    <path d="M96.4076329,171.45171 C100.215173,165.877515 112.550573,165.679515 119.783017,169.30737 C122.930722,170.88642 125.180992,168.990075 125.272567,171.889785 C125.498782,179.074215 126.189307,202.354559 122.545612,206.858564 C116.156152,214.756784 104.765708,209.948849 100.176068,202.400594 C95.558708,194.807294 90.9923331,179.379135 96.4076329,171.45171" id="Fill-77" fill="#F24841" mask="url(#mask-4)"></path>
                                    <path d="M125.641392,166.123728 C122.424882,164.290248 116.716542,165.773763 114.093042,167.428053 C107.285307,166.066308 99.3331324,167.169663 96.4076824,171.451908 C92.7832925,176.757318 81.4042328,181.963233 83.0233778,193.886297 C83.9856578,201.251897 95.7315125,207.419102 103.341147,204.004592 C112.392222,199.944107 111.012162,188.468523 112.280847,187.232508 C116.308662,183.992238 116.362617,178.468038 115.267182,174.305088 C117.333312,175.819788 124.163817,174.926808 126.048777,172.493883 C128.486157,168.829893 126.634857,166.690008 125.641392,166.123728" id="Fill-78" fill="#000000" mask="url(#mask-4)"></path>
                                    <path d="M112.9488,199.699577 C110.755455,200.741057 106.18413,200.823722 103.545285,198.767492 C100.536675,196.423172 99.7758604,193.373477 101.17374,189.500597 C102.15384,186.787008 105.62874,184.991148 109.04226,185.697018 L109.04919,185.697018 C109.906035,185.875218 110.762385,186.210828 111.571215,186.725133 C111.81129,186.876108 112.051365,187.047378 112.284015,187.232013 C112.393905,191.392487 112.640415,195.546032 112.9488,199.699577" id="Fill-79" fill="#F24841" mask="url(#mask-4)"></path>
                                    <path d="M127.733311,190.095191 C127.597186,188.489907 125.991901,187.513767 124.494526,187.828092 C124.000021,187.932042 123.737176,188.556732 123.881221,189.006191 C123.896566,189.053711 123.927751,189.084401 123.948046,189.125981 C123.797566,189.167066 123.649066,189.219041 123.507496,189.291806 C122.431366,189.844721 123.438691,191.430206 124.507396,190.881251 C124.514326,190.877786 124.590556,190.899566 124.486111,190.937186 C123.639166,191.244086 123.613921,192.550391 124.559866,192.748391 C126.153766,193.082021 127.877851,191.799476 127.733311,190.095191" id="Fill-80" fill="#F24841" mask="url(#mask-4)"></path>
                                    <path d="M110.686997,194.083456 L107.531372,190.848631 C107.179922,190.488766 106.627997,191.040691 106.978952,191.401051 C108.030827,192.479161 109.083197,193.557271 110.135072,194.635381 C110.486522,194.995741 111.037952,194.443816 110.686997,194.083456" id="Fill-81" fill="#000000" mask="url(#mask-4)"></path>
                                    <path d="M122.109963,198.487718 C121.541208,198.292688 120.971958,198.097658 120.402708,197.902133 C119.926518,197.739278 119.722083,198.492668 120.194808,198.655028 C120.764058,198.850058 121.333308,199.045088 121.902558,199.240613 C122.378748,199.403963 122.583183,198.650078 122.109963,198.487718" id="Fill-82" fill="#000000" mask="url(#mask-4)"></path>
                                    <path d="M122.982004,183.975853 C122.815684,184.852993 122.649859,185.730628 122.483539,186.608263 C122.390479,187.099303 123.142879,187.309183 123.235939,186.815668 C123.402259,185.938033 123.568579,185.060893 123.734899,184.183258 C123.827464,183.692218 123.075064,183.481843 122.982004,183.975853" id="Fill-83" fill="#000000" mask="url(#mask-4)"></path>
                                    <path d="M123.213516,180.792657 C122.774451,180.906507 122.335386,181.020357 121.896321,181.134207 C120.924636,181.386162 121.336476,182.892447 122.311131,182.639502 C122.750196,182.525652 123.189756,182.411802 123.628326,182.297952 C124.600506,182.045997 124.188171,180.539712 123.213516,180.792657" id="Fill-84" fill="#000000" mask="url(#mask-4)"></path>
                                    <path d="M127.232272,184.271467 L125.073577,189.925852 C124.895377,190.392142 124.140997,190.186222 124.319197,189.720427 C124.545412,189.130882 124.771627,188.541337 124.997842,187.952287 C121.385827,187.588957 115.909642,187.122667 111.571463,186.725182 C110.762633,186.210877 109.905788,185.875267 109.048943,185.697067 C113.716297,186.163357 120.830932,186.752407 125.279002,187.197907 C125.676487,186.156427 126.080902,185.107522 126.478387,184.065547 C126.656587,183.599752 127.410472,183.798247 127.232272,184.271467" id="Fill-85" fill="#FFFFFF" mask="url(#mask-4)"></path>
                                    <path d="M85.9848637,316.266085 C92.3258136,315.959185 98.6667634,315.50032 105.008208,314.999875 C103.447473,296.935345 102.850998,269.661341 102.850998,269.661341 L94.7532935,223.722867 C94.7532935,223.722867 94.6265735,202.493803 83.8885388,203.178883 C63.2658493,204.495583 34.0821351,244.355952 27.2427203,318.254995 C46.8259098,317.66941 66.4145442,317.213515 85.9848637,316.266085" id="Fill-86" fill="#607DD0" mask="url(#mask-4)"></path>
                                    <path d="M70.7959871,272.085851 C65.6321473,298.78417 92.3849166,307.201645 101.077116,305.99929 C103.463016,305.66863 105.813771,305.17165 108.134826,304.551415 C106.712691,284.740525 106.163736,257.109626 106.163736,257.109626 L102.956136,237.070542 C97.4136214,240.315762 92.2017666,244.338132 87.4992667,248.774816 C80.6855919,255.203381 72.2374271,264.634616 70.7959871,272.085851" id="Fill-87" fill="#000000" mask="url(#mask-4)"></path>
                                    <path d="M199.952077,270.293901 C198.589342,265.728021 191.291062,267.413001 187.210282,268.176291 C187.293442,267.913941 188.913577,267.176391 188.941297,266.903646 C190.742602,266.745246 192.508762,266.214606 194.153647,265.314696 C196.080682,264.260841 196.552417,261.575467 194.663497,261.322522 C186.644497,260.247382 180.120892,261.312622 178.388887,261.652192 C174.535807,262.407067 170.874292,263.796532 167.370188,265.548336 C166.931618,265.767621 166.589078,266.037396 166.323758,266.338356 C154.730858,265.296381 141.557918,265.863651 131.356959,266.679411 C130.620399,278.902446 130.691679,291.250716 132.467243,303.33218 C147.906293,299.274666 163.950233,294.557811 173.467102,291.697701 C177.491947,291.731856 181.518277,291.628401 185.530747,291.337836 C190.261462,290.995296 195.447082,290.077566 197.863177,285.464166 C199.029892,283.236171 199.175917,280.618611 199.471432,278.169846 C199.761997,275.763651 200.669827,272.699106 199.952077,270.293901" id="Fill-88" fill="#F24841" mask="url(#mask-4)"></path>
                                    <path d="M135.995801,266.342613 C123.644067,267.146988 114.216792,268.518633 114.216792,268.518633 C104.964252,213.0029 100.223637,205.5779 85.3736377,203.29298 C85.3736377,203.29298 77.5486779,208.89044 76.863598,248.128594 C76.178023,287.367243 77.8917129,310.498592 93.8267525,311.012402 C100.946337,311.242082 119.315292,306.889052 137.461991,302.002412 C136.792256,290.125878 136.374971,278.233998 135.995801,266.342613" id="Fill-89" fill="#607DD0" mask="url(#mask-4)"></path>
                                    <path d="M112.754958,268.530959 L108.299958,269.559074 C107.870298,269.658074 108.052458,270.318899 108.482118,270.219899 L112.937118,269.191784 C113.366778,269.092784 113.185113,268.431959 112.754958,268.530959" id="Fill-90" fill="#FFFFFF" mask="url(#mask-4)"></path>
                                    <path d="M76.2144055,247.357631 C76.1782705,253.354556 76.1421355,259.351976 76.1064859,265.348901 C76.1035255,265.789946 76.7891005,265.790441 76.7915755,265.348901 C76.8277105,259.351976 76.8638455,253.354556 76.8994855,247.357631 C76.9024555,246.916586 76.2168805,246.916091 76.2144055,247.357631" id="Fill-91" fill="#000000" mask="url(#mask-4)"></path>
                                    <path d="M197.974997,272.934726 C197.441882,273.258456 196.908767,273.582186 196.375652,273.905916 C195.998957,274.134606 196.342982,274.727121 196.721657,274.497441 L198.320507,273.526746 C198.697202,273.298056 198.353177,272.705046 197.974997,272.934726" id="Fill-92" fill="#F24841" mask="url(#mask-4)"></path>
                                    <path d="M197.917924,277.675391 C197.384809,277.999121 196.851694,278.322851 196.318579,278.646581 C195.941884,278.875271 196.285909,279.467786 196.664584,279.238106 L198.263434,278.266916 C198.640129,278.038226 198.296104,277.445711 197.917924,277.675391" id="Fill-93" fill="#F24841" mask="url(#mask-4)"></path>
                                    <path d="M196.775662,283.844031 C196.242547,284.167266 195.709432,284.491491 195.176317,284.814726 C194.799622,285.043416 195.143647,285.636426 195.522322,285.406746 L197.121172,284.435556 C197.497867,284.206866 197.153842,283.614351 196.775662,283.844031" id="Fill-94" fill="#F24841" mask="url(#mask-4)"></path>
                                    <path d="M73.2990041,213.591999 C73.3707791,214.418649 72.6258041,215.094819 71.7956891,215.094819 C70.9655741,215.094819 70.2928691,214.422114 70.2928691,213.591999 C70.2928691,212.761884 70.9655741,212.088684 71.7956891,212.088684 C72.6258041,212.088684 73.2118841,212.590119 73.2990041,213.591999" id="Fill-95" fill="#FFFFFF" mask="url(#mask-4)"></path>
                                    <path d="M96.1093955,213.591999 C96.1811705,214.418649 95.4366905,215.094819 94.6060805,215.094819 C93.7764605,215.094819 93.1032605,214.422114 93.1032605,213.591999 C93.1032605,212.761884 93.7764605,212.088684 94.6060805,212.088684 C95.4366905,212.088684 96.0222755,212.590119 96.1093955,213.591999" id="Fill-96" fill="#FFFFFF" mask="url(#mask-4)"></path>
                                    <path d="M50.4898502,235.524508 C50.5586552,236.353633 49.8181352,237.025348 48.9820802,237.025348 C48.8311052,237.025348 48.6870602,237.005053 48.5504402,236.963473 C49.0028702,236.072473 49.4686652,235.195333 49.9418852,234.338488 C50.2502702,234.585493 50.4418352,234.982978 50.4898502,235.524508" id="Fill-97" fill="#FFFFFF" mask="url(#mask-4)"></path>
                                    <path d="M73.2990041,235.525003 C73.3707791,236.351653 72.6258041,237.027823 71.7956891,237.027823 C70.9655741,237.027823 70.2928691,236.355118 70.2928691,235.525003 C70.2928691,234.694888 70.9655741,234.021688 71.7956891,234.021688 C72.6258041,234.021688 73.2118841,234.523123 73.2990041,235.525003" id="Fill-98" fill="#FFFFFF" mask="url(#mask-4)"></path>
                                    <path d="M96.1093955,235.525003 C96.1811705,236.351653 95.4366905,237.027823 94.6060805,237.027823 C93.7764605,237.027823 93.1032605,236.355118 93.1032605,235.525003 C93.1032605,234.694888 93.7764605,234.021688 94.6060805,234.021688 C95.4366905,234.021688 96.0222755,234.523123 96.1093955,235.525003" id="Fill-99" fill="#FFFFFF" mask="url(#mask-4)"></path>
                                    <path d="M50.4884147,257.45776 C50.5606847,258.284905 49.8157097,258.961075 48.9855947,258.961075 C48.1554797,258.961075 47.4822797,258.287875 47.4822797,257.45776 C47.4822797,256.627645 48.1554797,255.95494 48.9855947,255.95494 C49.8157097,255.95494 50.4012947,256.45588 50.4884147,257.45776" id="Fill-100" fill="#FFFFFF" mask="url(#mask-4)"></path>
                                    <path d="M73.2990041,257.45776 C73.3707791,258.284905 72.6258041,258.961075 71.7956891,258.961075 C70.9655741,258.961075 70.2928691,258.287875 70.2928691,257.45776 C70.2928691,256.627645 70.9655741,255.95494 71.7956891,255.95494 C72.6258041,255.95494 73.2118841,256.45588 73.2990041,257.45776" id="Fill-101" fill="#FFFFFF" mask="url(#mask-4)"></path>
                                    <path d="M96.1093955,257.45776 C96.1811705,258.284905 95.4366905,258.961075 94.6060805,258.961075 C93.7764605,258.961075 93.1032605,258.287875 93.1032605,257.45776 C93.1032605,256.627645 93.7764605,255.95494 94.6060805,255.95494 C95.4366905,255.95494 96.0222755,256.45588 96.1093955,257.45776" id="Fill-102" fill="#FFFFFF" mask="url(#mask-4)"></path>
                                    <path d="M50.4884147,279.390962 C50.5606847,280.217612 49.8157097,280.893782 48.9855947,280.893782 C48.1554797,280.893782 47.4822797,280.221077 47.4822797,279.390962 C47.4822797,278.560352 48.1554797,277.887647 48.9855947,277.887647 C49.8157097,277.887647 50.4012947,278.389082 50.4884147,279.390962" id="Fill-103" fill="#FFFFFF" mask="url(#mask-4)"></path>
                                    <path d="M96.1093955,279.390962 C96.1811705,280.217612 95.4366905,280.893782 94.6060805,280.893782 C93.7764605,280.893782 93.1032605,280.221077 93.1032605,279.390962 C93.1032605,278.560352 93.7764605,277.887647 94.6060805,277.887647 C95.4366905,277.887647 96.0222755,278.389082 96.1093955,279.390962" id="Fill-104" fill="#FFFFFF" mask="url(#mask-4)"></path>
                                    <path d="M118.919737,279.390962 C118.991512,280.217612 118.247032,280.893782 117.416422,280.893782 C116.586802,280.893782 115.913602,280.221077 115.913602,279.390962 C115.913602,278.560352 116.586802,277.887647 117.416422,277.887647 C118.247032,277.887647 118.832617,278.389082 118.919737,279.390962" id="Fill-105" fill="#FFFFFF" mask="url(#mask-4)"></path>
                                    <path d="M50.4884147,301.323718 C50.5606847,302.150863 49.8157097,302.826538 48.9855947,302.826538 C48.1554797,302.826538 47.4822797,302.153833 47.4822797,301.323718 C47.4822797,300.493603 48.1554797,299.820898 48.9855947,299.820898 C49.8157097,299.820898 50.4012947,300.321838 50.4884147,301.323718" id="Fill-106" fill="#FFFFFF" mask="url(#mask-4)"></path>
                                    <path d="M73.2990041,301.323718 C73.3707791,302.150863 72.6258041,302.826538 71.7956891,302.826538 C70.9655741,302.826538 70.2928691,302.153833 70.2928691,301.323718 C70.2928691,300.493603 70.9655741,299.820898 71.7956891,299.820898 C72.6258041,299.820898 73.2118841,300.321838 73.2990041,301.323718" id="Fill-107" fill="#FFFFFF" mask="url(#mask-4)"></path>
                                    <path d="M96.1093955,301.323718 C96.1811705,302.150863 95.4366905,302.826538 94.6060805,302.826538 C93.7764605,302.826538 93.1032605,302.153833 93.1032605,301.323718 C93.1032605,300.493603 93.7764605,299.820898 94.6060805,299.820898 C95.4366905,299.820898 96.0222755,300.321838 96.1093955,301.323718" id="Fill-108" fill="#FFFFFF" mask="url(#mask-4)"></path>
                                    <path d="M118.919737,301.323718 C118.991512,302.150863 118.247032,302.826538 117.416422,302.826538 C116.586802,302.826538 115.913602,302.153833 115.913602,301.323718 C115.913602,300.493603 116.586802,299.820898 117.416422,299.820898 C118.247032,299.820898 118.832617,300.321838 118.919737,301.323718" id="Fill-109" fill="#FFFFFF" mask="url(#mask-4)"></path>
                                    <path d="M176.987245,291.803185 L176.987245,473.80676 C176.987245,476.89358 181.784785,476.89853 181.784785,473.80676 L181.784785,291.803185 L176.987245,291.803185 Z" id="Fill-110" fill="#607DD0" mask="url(#mask-4)"></path>
                                    <path d="M358.842221,293.852832 L358.842221,473.806612 C358.842221,476.893432 363.639761,476.898382 363.639761,473.806612 L363.639761,293.709777 C362.058236,293.846892 360.449981,293.896887 358.842221,293.852832" id="Fill-111" fill="#607DD0" mask="url(#mask-4)"></path>
                                    <path d="M378.146775,290.237946 L161.794161,290.237946 C158.707341,290.237946 158.702391,295.035486 161.794161,295.035486 L378.146775,295.035486 C381.233595,295.035486 381.238545,290.237946 378.146775,290.237946" id="Fill-112" fill="#607DD0" mask="url(#mask-4)"></path>
                                    <path d="M29.0845162,389.408124 C27.8910713,378.134994 26.6976263,366.86137 25.5046763,355.58824 C25.2745013,353.41717 21.8451414,353.393905 22.0772964,355.58824 C23.2707414,366.86137 24.4641864,378.134994 25.6576313,389.408124 C25.8878063,391.579194 29.3166712,391.602459 29.0845162,389.408124" id="Fill-113" fill="#607DD0" mask="url(#mask-4)"></path>
                                    <path d="M27.2751428,357.881823 C23.2210929,323.319438 19.167043,288.756559 15.1134881,254.19368 C14.8303481,251.78501 13.2676331,249.765905 10.6584882,249.738496 C8.46613328,249.71591 5.92282334,251.805305 6.20348834,254.19368 C10.2570432,288.756559 14.3110931,323.319438 18.365143,357.881823 C18.647788,360.290492 20.210998,362.309597 22.8201429,362.337015 C25.0124978,362.360087 27.5553128,360.270197 27.2751428,357.881823" id="Fill-120" fill="#0084FD" mask="url(#mask-4)"></path>
                                    <polygon id="Fill-125" fill="#B1D8FE" mask="url(#mask-4)" points="362.114765 104.267292 428.494264 104.267292 428.494264 50.0573687 362.114765 50.0573687"></polygon>
                                    <path d="M369.858892,95.1402845 C369.731677,95.1402845 369.603472,95.0962295 369.499027,95.0066345 C369.267367,94.8081395 369.240142,94.4591645 369.439132,94.2270095 L386.034501,74.86657 C386.187951,74.685895 386.440896,74.62402 386.661666,74.713615 L406.699266,82.8370598 L421.38839,59.4433604 C421.55075,59.1854654 421.890815,59.1072554 422.151185,59.2696154 C422.409482,59.4319754 422.48729,59.7735254 422.324435,60.0324104 L407.389296,83.8181498 C407.246736,84.0453548 406.962606,84.1369298 406.713126,84.0364448 L386.615136,75.888745 L370.279147,94.9467395 C370.169752,95.0749445 370.014322,95.1402845 369.858892,95.1402845" id="Fill-126" fill="#003567" mask="url(#mask-4)"></path>
                                    <polygon id="Fill-127" fill="#FFCB49" mask="url(#mask-4)" points="419.090749 53.0996386 437.344863 53.0996386 437.344863 34.8455241 419.090749 34.8455241"></polygon>
                                    <path d="M385.084497,19.943797 C385.294872,22.3633569 383.115387,24.3413769 380.686917,24.3413769 C378.258447,24.3413769 376.289338,22.3727619 376.289338,19.943797 C376.289338,17.515327 378.258447,15.5462171 380.686917,15.5462171 C383.115387,15.5462171 384.829572,17.012407 385.084497,19.943797" id="Fill-128" fill="#607DD0" mask="url(#mask-4)"></path>
                                    <path d="M371.719993,19.943797 C371.930368,22.3633569 369.750883,24.3413769 367.322413,24.3413769 C364.893943,24.3413769 362.924833,22.3727619 362.924833,19.943797 C362.924833,17.515327 364.893943,15.5462171 367.322413,15.5462171 C369.750883,15.5462171 371.465068,17.012407 371.719993,19.943797" id="Fill-129" fill="#607DD0" mask="url(#mask-4)"></path>
                                    <path d="M384.025841,75.2261875 C383.909516,73.8882025 385.114346,72.7937576 386.457776,72.7937576 C387.801206,72.7937576 388.890206,73.8832525 388.890206,75.2261875 C388.890206,76.5696175 387.801206,77.6586174 386.457776,77.6586174 C385.114346,77.6586174 384.166421,76.8478075 384.025841,75.2261875" id="Fill-130" fill="#003567" mask="url(#mask-4)"></path>
                                    <path d="M367.292515,94.7252765 C367.17619,93.3867965 368.381515,92.2928466 369.72445,92.2928466 C371.06788,92.2928466 372.15688,93.3818465 372.15688,94.7252765 C372.15688,96.0687065 371.06788,97.1577064 369.72445,97.1577064 C368.381515,97.1577064 367.43359,96.3468964 367.292515,94.7252765" id="Fill-131" fill="#003567" mask="url(#mask-4)"></path>
                                    <path d="M419.427992,59.7378854 C419.311667,58.3994055 420.516992,57.3054555 421.860422,57.3054555 C423.203357,57.3054555 424.292357,58.3944555 424.292357,59.7378854 C424.292357,61.0808204 423.203357,62.1703154 421.860422,62.1703154 C420.516992,62.1703154 419.569067,61.3590104 419.427992,59.7378854" id="Fill-132" fill="#003567" mask="url(#mask-4)"></path>
                                    <path d="M453.755598,16.9597391 L419.459524,16.9597391 C418.747219,16.9597391 418.746229,18.066064 419.459524,18.066064 L453.755598,18.066064 C454.466913,18.066064 454.468398,16.9597391 453.755598,16.9597391" id="Fill-133" fill="#607DD0" mask="url(#mask-4)"></path>
                                    <path d="M446.195711,22.3071249 L419.459276,22.3071249 C418.747466,22.3071249 418.746476,23.4134499 419.459276,23.4134499 L446.195711,23.4134499 C446.907026,23.4134499 446.908511,22.3071249 446.195711,22.3071249" id="Fill-134" fill="#607DD0" mask="url(#mask-4)"></path>
                                    <path d="M356.02983,55.312338 L356.02983,103.437722 C356.02983,104.149532 357.136155,104.150522 357.136155,103.437722 L357.136155,55.312338 C357.136155,54.6005281 356.02983,54.5995381 356.02983,55.312338" id="Fill-135" fill="#B1D8FE" mask="url(#mask-4)"></path>
                                    <path d="M424.460212,48.5123747 L433.310812,39.6617749 C433.814722,39.157865 433.032622,38.37527 432.528712,38.879675 L423.678112,47.7302747 C423.173707,48.2341847 423.955807,49.0167797 424.460212,48.5123747" id="Fill-136" fill="#FFFFFF" mask="url(#mask-4)"></path>
                                    <path d="M423.678062,39.6618244 L432.528662,48.5124242 C433.032077,49.0163342 433.815167,48.2342342 433.310762,47.7303242 L424.460162,38.8797245 C423.956252,38.3753195 423.173657,39.1574195 423.678062,39.6618244" id="Fill-137" fill="#FFFFFF" mask="url(#mask-4)"></path>
                                    <path d="M375.66742,54.759324 L366.81682,54.759324 C366.10501,54.759324 366.10402,55.865649 366.81682,55.865649 L375.66742,55.865649 C376.378735,55.865649 376.38022,54.759324 375.66742,54.759324" id="Fill-138" fill="#003567" mask="url(#mask-4)"></path>
                                    <path d="M375.66742,58.3548555 L366.81682,58.3548555 C366.10501,58.3548555 366.10402,59.4611804 366.81682,59.4611804 L375.66742,59.4611804 C376.378735,59.4611804 376.38022,58.3548555 375.66742,58.3548555" id="Fill-139" fill="#003567" mask="url(#mask-4)"></path>
                                    <polygon id="Fill-140" fill="#B1D8FE" mask="url(#mask-4)" points="467.929923 102.858522 474.988127 102.858522 474.988127 46.9888638 467.929923 46.9888638"></polygon>
                                    <polygon id="Fill-141" fill="#B1D8FE" mask="url(#mask-4)" points="478.416497 102.858522 485.474702 102.858522 485.474702 60.8181734 478.416497 60.8181734"></polygon>
                                    <polygon id="Fill-142" fill="#B1D8FE" mask="url(#mask-4)" points="457.442853 102.858522 464.501553 102.858522 464.501553 60.8181734 457.442853 60.8181734"></polygon>
                                    <polygon id="Fill-143" fill="#B1D8FE" mask="url(#mask-4)" points="446.956278 102.858522 454.014483 102.858522 454.014483 68.4733482 446.956278 68.4733482"></polygon>
                                    <polygon id="Fill-144" fill="#B1D8FE" mask="url(#mask-4)" points="436.469703 102.858522 443.527908 102.858522 443.527908 86.2933477 436.469703 86.2933477"></polygon>
                                    <path d="M357.733323,244.821697 C357.587793,243.149092 359.094572,241.781407 360.773612,241.781407 C362.452652,241.781407 363.813902,243.142657 363.813902,244.821697 C363.813902,246.501232 362.452652,247.862482 360.773612,247.862482 C359.094572,247.862482 357.909543,246.848722 357.733323,244.821697" id="Fill-145" fill="#B1D8FE" mask="url(#mask-4)"></path>
                                    <path d="M320.579317,257.544731 C320.433787,255.871631 321.940566,254.503946 323.619606,254.503946 C325.298646,254.503946 326.659896,255.865196 326.659896,257.544731 C326.659896,259.223771 325.298646,260.585021 323.619606,260.585021 C321.940566,260.585021 320.755537,259.571261 320.579317,257.544731" id="Fill-146" fill="#B1D8FE" mask="url(#mask-4)"></path>
                                    <path d="M385.207257,257.728921 C385.061727,256.055821 386.568012,254.688631 388.247547,254.688631 C389.926587,254.688631 391.287342,256.049386 391.287342,257.728921 C391.287342,259.408456 389.926587,260.769211 388.247547,260.769211 C386.568012,260.769211 385.382982,259.755946 385.207257,257.728921" id="Fill-147" fill="#B1D8FE" mask="url(#mask-4)"></path>
                                    <path d="M429.091135,222.695346 C428.945605,221.022741 430.452385,219.655056 432.13192,219.655056 C433.810465,219.655056 435.171714,221.016306 435.171714,222.695346 C435.171714,224.374386 433.810465,225.735636 432.13192,225.735636 C430.452385,225.735636 429.267355,224.722371 429.091135,222.695346" id="Fill-148" fill="#B1D8FE" mask="url(#mask-4)"></path>
                                    <path d="M449.189421,235.049308 C449.043891,233.376703 450.550671,232.009018 452.230206,232.009018 C453.908751,232.009018 455.270001,233.370268 455.270001,235.049308 C455.270001,236.728348 453.908751,238.089598 452.230206,238.089598 C450.550671,238.089598 449.365641,237.076333 449.189421,235.049308" id="Fill-149" fill="#B1D8FE" mask="url(#mask-4)"></path>
                                    <path d="M388.426688,258.650759 C388.345508,258.650759 388.263833,258.632939 388.187603,258.596309 L360.734903,245.418914 L324.164304,258.067154 C323.874234,258.166154 323.560404,258.014189 323.460414,257.725604 C323.360919,257.436524 323.513874,257.121704 323.802459,257.021714 L360.587888,244.29873 C360.725498,244.251705 360.876968,244.26012 361.007648,244.322985 L388.350953,257.446919 L431.778292,222.26529 C431.963422,222.1158 432.224782,222.100455 432.424267,222.229155 L452.338116,234.95214 C452.596011,235.11648 452.670756,235.458525 452.506911,235.715925 C452.342076,235.973325 452.000031,236.048565 451.742631,235.884225 L432.164887,223.37607 L388.775168,258.527504 C388.674683,258.608684 388.550933,258.650759 388.426688,258.650759" id="Fill-150" fill="#B1D8FE" mask="url(#mask-4)"></path>
                                </g>
                            </g>
                        </g>
                    </g>
                </g>
            </g>
        </g>
    </g>
</svg>